<svg width="60" height="16" viewBox="0 0 60 16" fill="none" xmlns="http://www.w3.org/2000/svg">
<rect width="60" height="16" rx="8" fill="#0AA598"/>
<path d="M18.3675 8.124L19.5675 10.512L20.3355 12.012H18.6555L17.8875 10.512L17.0835 8.94L17.0475 8.868C16.7835 8.436 16.3155 8.148 15.7755 8.148H14.2755V12.012H12.7755V3.612H18.0795C18.7035 3.612 19.2675 3.864 19.6755 4.272C20.0835 4.692 20.3355 5.256 20.3355 5.88C20.3355 6.792 19.7955 7.584 19.0155 7.944C18.8115 8.04 18.5955 8.1 18.3675 8.124ZM14.2755 6.66L18.0795 6.648C18.1875 6.648 18.2955 6.624 18.3915 6.576C18.6675 6.456 18.8475 6.18 18.8475 5.88C18.8475 5.604 18.7035 5.412 18.6195 5.328C18.5235 5.232 18.3435 5.112 18.0795 5.112H14.2755V6.66ZM23.8211 5.1C23.4011 5.1 23.0531 5.448 23.0531 5.868V6.648H28.4531V8.148H23.0531V9.732C23.0531 10.152 23.4011 10.5 23.8211 10.5H29.9531V12H23.8211C22.5731 12 21.5651 10.98 21.5651 9.732V5.868C21.5651 4.62 22.5731 3.6 23.8211 3.6H29.9531V5.1H23.8211ZM38.0508 4.26L38.0628 4.272C38.4708 4.692 38.7228 5.256 38.7228 5.88C38.7228 6.792 38.1828 7.584 37.4028 7.944C37.1988 8.04 36.9828 8.1 36.7548 8.124C36.7308 8.124 36.7068 8.124 36.6828 8.124V8.136H32.6628V12H31.1628V3.6H36.4548C37.0788 3.6 37.6428 3.852 38.0508 4.26ZM36.7788 6.576V6.564C37.0548 6.444 37.2348 6.168 37.2348 5.868C37.2348 5.592 37.0908 5.4 37.0068 5.316C36.9108 5.22 36.7308 5.1 36.4668 5.1H32.6628V6.648H36.4668C36.5748 6.648 36.6828 6.624 36.7788 6.576ZM43.3011 3.6C45.6171 3.6 47.5011 5.484 47.5011 7.8C47.5011 10.116 45.6171 12 43.3011 12C40.9851 12 39.1011 10.116 39.1011 7.8C39.1011 5.484 40.9851 3.6 43.3011 3.6ZM43.3011 10.5C44.7891 10.5 46.0011 9.288 46.0011 7.8C46.0011 6.312 44.7891 5.1 43.3011 5.1C41.8131 5.1 40.6011 6.312 40.6011 7.8C40.6011 9.288 41.8131 10.5 43.3011 10.5Z" fill="white"/>
</svg>
