<svg width="846" height="117" viewBox="0 0 846 117" fill="none" xmlns="http://www.w3.org/2000/svg">
<rect width="846" height="116.357" fill="#0AA598"/>
<path d="M371.904 27.4767H380.292V28.9767H376.848V35.8767H375.348V28.9767H371.904V27.4767ZM383.769 28.9647C383.349 28.9647 383.001 29.3127 383.001 29.7327V30.5127H388.401V32.0127H383.001V33.5967C383.001 34.0167 383.349 34.3647 383.769 34.3647H389.901V35.8647H383.769C382.521 35.8647 381.513 34.8447 381.513 33.5967V29.7327C381.513 28.4847 382.521 27.4647 383.769 27.4647H389.901V28.9647H383.769ZM394.523 28.9647C393.035 28.9647 391.823 30.1767 391.823 31.6647C391.823 33.1527 393.035 34.3647 394.523 34.3647H398.723V35.8647H394.523C392.207 35.8647 390.323 33.9807 390.323 31.6647C390.323 29.3487 392.207 27.4647 394.523 27.4647H398.723V28.9647H394.523ZM406.823 27.4647H408.323V35.8647H406.823V32.0127H401.423V35.8647H399.923V27.4647H401.423V30.5127H406.823V27.4647ZM416.421 27.4647L417.921 27.4767V35.8767L416.421 34.7247L411.021 30.5607V35.8767H409.521V27.5007L411.021 28.6527L416.421 32.8167V27.4647ZM423.031 27.4647C425.347 27.4647 427.231 29.3487 427.231 31.6647C427.231 33.9807 425.347 35.8647 423.031 35.8647C420.715 35.8647 418.831 33.9807 418.831 31.6647C418.831 29.3487 420.715 27.4647 423.031 27.4647ZM423.031 34.3647C424.519 34.3647 425.731 33.1527 425.731 31.6647C425.731 30.1767 424.519 28.9647 423.031 28.9647C421.543 28.9647 420.331 30.1767 420.331 31.6647C420.331 33.1527 421.543 34.3647 423.031 34.3647ZM430.662 34.3647L435.066 34.3767V35.8767H430.806C430.386 35.8767 429.99 35.7807 429.63 35.6007C429.102 35.3367 428.67 34.9047 428.418 34.3767C428.238 34.0167 428.142 33.6207 428.142 33.2007V27.4767H429.642V33.3447C429.714 33.8727 430.134 34.2927 430.662 34.3647ZM439.249 27.4647C441.565 27.4647 443.449 29.3487 443.449 31.6647C443.449 33.9807 441.565 35.8647 439.249 35.8647C436.933 35.8647 435.049 33.9807 435.049 31.6647C435.049 29.3487 436.933 27.4647 439.249 27.4647ZM439.249 34.3647C440.737 34.3647 441.949 33.1527 441.949 31.6647C441.949 30.1767 440.737 28.9647 439.249 28.9647C437.761 28.9647 436.549 30.1767 436.549 31.6647C436.549 33.1527 437.761 34.3647 439.249 34.3647ZM448.561 28.9647C447.073 28.9647 445.861 30.1767 445.861 31.6647C445.861 33.1527 447.073 34.3647 448.561 34.3647H451.261V32.7567H448.561V31.2567H452.761V35.8647H448.561C446.245 35.8647 444.361 33.9807 444.361 31.6647C444.361 29.3487 446.245 27.4647 448.561 27.4647H452.761V28.9647H448.561ZM455.458 35.8647H453.958V27.4647H455.458V35.8647ZM458.922 28.9647C458.502 28.9647 458.154 29.3127 458.154 29.7327V30.5127H463.554V32.0127H458.154V33.5967C458.154 34.0167 458.502 34.3647 458.922 34.3647H465.054V35.8647H458.922C457.674 35.8647 456.666 34.8447 456.666 33.5967V29.7327C456.666 28.4847 457.674 27.4647 458.922 27.4647H465.054V28.9647H458.922ZM474.195 29.7807L472.695 29.7927V29.7447C472.695 29.3247 472.347 28.9767 471.927 28.9767H468.519C468.099 28.9767 467.751 29.3247 467.751 29.7447V29.7927C467.751 30.2127 468.099 30.5607 468.519 30.5607H471.543C472.323 30.5607 473.019 30.8967 473.499 31.4247C473.535 31.4607 473.559 31.4967 473.595 31.5327C473.967 31.9887 474.195 32.5767 474.195 33.2127C474.195 34.6767 473.007 35.8647 471.543 35.8647H468.915C467.451 35.8647 466.263 34.6767 466.263 33.2127H467.763C467.763 33.8487 468.279 34.3647 468.915 34.3647H471.543C472.179 34.3647 472.707 33.8487 472.707 33.2127C472.707 32.5767 472.179 32.0607 471.543 32.0607H468.519C467.907 32.0607 467.355 31.8207 466.947 31.4247C466.839 31.3167 466.743 31.1967 466.659 31.0647C466.407 30.7047 466.263 30.2607 466.263 29.7807V29.7327C466.263 28.4847 467.271 27.4647 468.519 27.4647H471.927C473.175 27.4647 474.195 28.4847 474.195 29.7327V29.7807Z" fill="white"/>
<g clip-path="url(#clip0_233_331)">
<path d="M157.764 78.7015L157.767 78.6919C157.762 78.6677 157.76 78.6622 157.764 78.7015Z" fill="white"/>
<path d="M157.764 78.7015L157.767 78.6919C157.762 78.6677 157.76 78.6622 157.764 78.7015Z" fill="white"/>
<path d="M157.935 85.0402C157.845 84.8516 157.732 84.4822 157.658 84.3199C157.587 84.1679 157.372 83.772 157.265 83.6452C157.031 83.3686 156.976 83.3478 156.907 82.9986C156.788 82.3905 156.471 81.2878 156.098 80.5267C155.905 80.134 155.585 79.8041 155.291 79.5193C155.035 79.2695 154.458 78.8489 154.357 78.8699C153.414 79.06 153.122 79.9939 152.678 80.7338C152.433 81.143 152.173 81.4911 151.98 81.9265C151.801 82.3268 151.817 82.77 151.511 83.1138C151.198 83.4667 150.994 83.842 150.84 84.298C150.811 84.3846 150.729 85.2943 150.639 85.5097L150.639 85.5102L152.04 85.4105C153.346 85.5004 152.969 86.0058 155.007 85.8958L158.225 85.7952C158.125 85.4973 157.988 85.1525 157.935 85.0402Z" fill="white"/>
<path d="M167.274 63.4805H148.212C146.439 63.4805 145.002 64.9324 145.002 66.7231V73.7933V73.7981C145.461 73.6304 146.122 72.6433 146.329 72.4032C146.691 71.9835 146.757 71.448 146.937 71.1108C147.348 70.3428 147.419 69.8147 148.353 69.8147C148.788 69.8147 148.961 69.916 149.255 70.3151C149.46 70.5926 149.814 71.1054 149.98 71.448C150.171 71.8435 150.483 72.3787 150.62 72.4867C150.721 72.567 150.822 72.6271 150.916 72.6627C151.067 72.7201 151.192 72.6148 151.294 72.5334C151.423 72.4294 151.479 72.2175 151.598 71.9348C151.771 71.527 151.959 71.0384 152.066 70.8678C152.251 70.573 152.314 70.2232 152.514 70.0538C152.809 69.8039 153.194 69.7864 153.3 69.7652C153.892 69.6471 154.162 70.0538 154.454 70.3165C154.645 70.4888 154.906 70.8358 155.091 71.3008C155.236 71.664 155.42 71.9999 155.497 72.2097C155.572 72.4121 155.756 72.7366 155.865 73.1256C155.964 73.4788 156.229 73.7495 156.329 73.9174C156.329 73.9174 156.483 74.3533 157.42 74.7518C157.624 74.8382 158.034 74.9788 158.279 75.0688C158.687 75.2182 159.081 75.1988 159.583 75.138C159.941 75.138 160.135 74.6143 160.298 74.195C160.394 73.9472 160.486 73.237 160.549 73.0354C160.61 72.8392 160.468 72.6874 160.589 72.5155C160.73 72.3148 160.815 72.3039 160.896 72.0422C161.072 71.4819 162.087 71.4536 162.658 71.4536C163.133 71.4536 163.073 71.92 163.88 71.7605C164.342 71.669 164.787 71.8207 165.278 71.9519C165.691 72.0626 166.079 72.1887 166.312 72.4639C166.463 72.642 166.836 73.5348 166.456 73.5728C166.492 73.6181 166.519 73.6997 166.587 73.7443C166.503 74.0811 166.134 73.8412 165.928 73.798C165.652 73.7401 165.457 73.8067 165.187 73.9275C164.725 74.1353 164.049 74.1111 163.646 74.4497C163.305 74.7367 163.305 75.3774 163.146 75.7364C163.146 75.7364 162.704 76.8859 161.738 77.5893C161.491 77.7696 161.007 78.2034 159.956 78.3674C159.484 78.4411 159.042 78.4472 158.558 78.4228C158.32 78.4112 158.097 78.399 157.859 78.3959C157.719 78.3948 157.249 78.3797 157.272 78.4251L157.22 78.5569C157.228 78.6003 157.245 78.7087 157.25 78.7348C157.269 78.8413 157.274 78.9262 157.278 79.024C157.286 79.2253 157.262 79.4352 157.272 79.6384C157.293 80.0599 157.448 80.444 157.468 80.8692C157.489 81.3426 157.721 81.8436 157.945 82.2302C158.03 82.3775 158.16 82.3942 158.216 82.5755C158.283 82.7832 158.22 83.0035 158.252 83.2249C158.378 84.0833 158.623 84.9805 159.006 85.7552C159.008 85.7616 159.011 85.7686 159.015 85.7743L159.015 85.7746C159.487 85.6944 159.961 85.5228 160.575 85.4311C161.701 85.2624 163.267 85.3493 164.272 85.2541C166.817 85.0125 168.199 86.3084 170.484 85.7773V66.7233C170.484 64.9324 169.047 63.4805 167.274 63.4805ZM157.764 78.7012C157.761 78.6623 157.763 78.6678 157.768 78.6917L157.764 78.7012Z" fill="white"/>
<path d="M150.876 81.6785C151.054 81.287 151.156 80.8412 151.303 80.4409C151.444 80.0567 151.665 79.5138 152.04 79.3204C151.994 79.2665 151.256 79.2418 151.058 79.2219C150.839 79.1993 150.634 79.174 150.421 79.1304C150.022 79.0491 149.587 78.9702 149.194 78.8752C148.956 78.8169 148.161 78.5328 147.989 78.4527C147.584 78.2643 147.315 77.7524 146.999 77.8051C146.797 77.8383 146.6 77.9083 146.475 78.114C146.372 78.2817 146.337 78.57 146.266 78.7635C146.184 78.988 146.042 79.1976 145.917 79.4115C145.688 79.8039 145.276 80.1589 145.098 80.5412C145.062 80.6199 145.031 80.7078 145.001 80.7996V80.8437V82.2663V84.8037V85.1703C145.208 85.2061 145.425 85.2501 145.668 85.3155C147.458 85.7981 147.895 85.8388 149.651 85.6361L149.816 85.614V85.6139C149.95 85.3312 150.054 84.3696 150.141 84.0719C150.209 83.8437 150.302 83.6618 150.337 83.4287C150.371 83.2073 150.334 82.9964 150.315 82.7952C150.267 82.2912 150.679 82.1111 150.876 81.6785Z" fill="white"/>
<path d="M178.612 83.0389C177.765 83.0389 176.991 82.8864 176.291 82.5817C175.591 82.2771 174.991 81.8395 174.49 81.2684C173.989 80.6978 173.6 80.0038 173.324 79.1867C173.048 78.3695 172.91 77.4423 172.91 76.4044C172.91 75.3667 173.048 74.4426 173.324 73.632C173.6 72.8215 173.989 72.1406 174.49 71.5891C174.991 71.038 175.591 70.6163 176.291 70.3245C176.991 70.0327 177.765 69.8867 178.612 69.8867C179.46 69.8867 180.233 70.0327 180.933 70.3245C181.633 70.6163 182.233 71.0414 182.734 71.5989C183.235 72.1567 183.624 72.8411 183.9 73.6516C184.176 74.4624 184.314 75.3801 184.314 76.4045C184.314 77.4424 184.176 78.3697 183.9 79.1868C183.624 80.004 183.235 80.698 182.734 81.2686C182.233 81.8396 181.633 82.2773 180.933 82.5818C180.233 82.8862 179.46 83.0389 178.612 83.0389ZM178.612 80.5679C179.472 80.5679 180.153 80.1952 180.654 79.4493C181.155 78.7035 181.405 77.6885 181.405 76.4044C181.405 75.1334 181.155 74.141 180.654 73.4277C180.153 72.7146 179.472 72.3576 178.612 72.3576C177.752 72.3576 177.071 72.7144 176.57 73.4277C176.069 74.1412 175.819 75.1335 175.819 76.4044C175.819 77.6885 176.069 78.7035 176.57 79.4493C177.071 80.1952 177.752 80.5679 178.612 80.5679Z" fill="white"/>
<path d="M185.314 76.5409C185.314 75.4902 185.475 74.5533 185.796 73.7295C186.117 72.906 186.55 72.2088 187.096 71.6379C187.642 71.0674 188.278 70.633 189.003 70.3343C189.729 70.0361 190.496 69.8867 191.306 69.8867C192.089 69.8867 192.798 70.0521 193.434 70.3828C194.07 70.7137 194.599 71.0997 195.023 71.5405L193.463 73.311C193.142 73.0128 192.817 72.7793 192.49 72.6106C192.163 72.4422 191.781 72.3576 191.344 72.3576C190.907 72.3576 190.5 72.4518 190.121 72.6396C189.742 72.8278 189.411 73.0969 189.129 73.447C188.846 73.7971 188.625 74.2251 188.464 74.731C188.304 75.2368 188.223 75.8078 188.223 76.4431C188.223 77.7534 188.5 78.7681 189.052 79.488C189.604 80.2079 190.343 80.5677 191.267 80.5677C191.781 80.5677 192.23 80.464 192.616 80.2565C193.001 80.0491 193.348 79.7767 193.656 79.4393L195.216 81.1709C194.69 81.7934 194.089 82.2605 193.415 82.5717C192.741 82.8831 192.012 83.0388 191.229 83.0388C190.42 83.0388 189.656 82.8993 188.936 82.6205C188.217 82.3418 187.588 81.9298 187.049 81.385C186.509 80.8402 186.085 80.1627 185.777 79.3519C185.469 78.5418 185.314 77.6046 185.314 76.5409Z" fill="white"/>
<path d="M196.16 80.1203C196.16 79.1085 196.584 78.3175 197.431 77.7468C198.279 77.1762 199.647 76.7934 201.535 76.5989C201.509 76.1707 201.38 75.8304 201.149 75.5775C200.918 75.3245 200.545 75.1981 200.032 75.1981C199.621 75.1981 199.21 75.276 198.799 75.4316C198.388 75.5873 197.951 75.8013 197.489 76.0737L196.487 74.1865C197.104 73.8104 197.749 73.5055 198.423 73.272C199.098 73.0386 199.813 72.9219 200.571 72.9219C201.804 72.9219 202.745 73.2754 203.393 73.9822C204.042 74.6893 204.366 75.7884 204.366 77.28V82.8055H202.055L201.843 81.8132H201.785C201.374 82.1764 200.941 82.4717 200.485 82.6983C200.029 82.9252 199.531 83.0388 198.992 83.0388C198.555 83.0388 198.163 82.964 197.817 82.8151C197.47 82.6662 197.175 82.4584 196.931 82.1924C196.687 81.9267 196.497 81.6186 196.362 81.2683C196.228 80.918 196.16 80.5356 196.16 80.1203ZM198.857 79.9062C198.857 80.2176 198.956 80.4479 199.156 80.5968C199.355 80.7462 199.621 80.8206 199.955 80.8206C200.289 80.8206 200.571 80.7495 200.802 80.6066C201.034 80.4639 201.277 80.263 201.535 80.0034V78.3106C200.52 78.4535 199.82 78.6609 199.435 78.9333C199.05 79.206 198.857 79.5302 198.857 79.9062Z" fill="white"/>
<path d="M206.021 73.1551H208.333L208.526 74.4002H208.603C209.001 73.9983 209.425 73.6512 209.874 73.3593C210.324 73.0675 210.863 72.9215 211.493 72.9215C212.173 72.9215 212.722 73.061 213.139 73.3398C213.557 73.6188 213.887 74.0176 214.132 74.5363C214.556 74.0955 215.001 73.7162 215.47 73.3981C215.939 73.0804 216.494 72.9214 217.137 72.9214C218.164 72.9214 218.918 73.2686 219.4 73.9623C219.882 74.6563 220.122 75.6062 220.122 76.8125V82.805H217.291V77.1822C217.291 76.4818 217.197 76.002 217.012 75.7424C216.825 75.4831 216.527 75.3533 216.116 75.3533C215.641 75.3533 215.095 75.6647 214.478 76.2872V82.805H211.647V77.1822C211.647 76.4818 211.553 76.002 211.367 75.7424C211.181 75.4831 210.883 75.3533 210.472 75.3533C209.983 75.3533 209.444 75.6647 208.853 76.2872V82.805H206.021V73.1551Z" fill="white"/>
<path d="M221.761 69.167H224.593V79.926C224.593 80.2247 224.647 80.4319 224.756 80.5487C224.865 80.6654 224.978 80.7237 225.093 80.7237C225.157 80.7237 225.212 80.7237 225.257 80.7237C225.302 80.7237 225.363 80.711 225.44 80.6849L225.787 82.8057C225.633 82.8703 225.437 82.9255 225.199 82.9709C224.961 83.0163 224.682 83.0392 224.361 83.0392C223.873 83.0392 223.462 82.9613 223.128 82.8057C222.794 82.65 222.528 82.433 222.329 82.1539C222.13 81.8752 221.985 81.5381 221.895 81.1423C221.806 80.7468 221.761 80.3026 221.761 79.8096V69.167Z" fill="white"/>
</g>
<path d="M274.029 66.3195C275.672 66.3392 277.709 66.8398 279.201 68.7671C279.534 69.1975 279.649 69.8908 279.637 70.6712C279.625 71.4714 279.477 72.4395 279.209 73.4896C278.688 75.5279 277.704 77.9152 276.318 80.0471C276.353 80.0733 276.403 80.1031 276.472 80.132C276.766 80.2552 277.411 80.3595 278.74 80.0825C278.903 80.0484 279.05 80.031 279.178 80.0355C279.298 80.0396 279.446 80.0644 279.567 80.1576C279.712 80.2691 279.764 80.434 279.75 80.5884C279.737 80.7211 279.678 80.8384 279.619 80.9281C279.498 81.1124 279.298 81.3029 279.066 81.4779C278.829 81.6565 278.539 81.8332 278.218 81.9839C277.597 82.2755 276.587 82.4317 275.82 82.3964C275.816 82.3962 275.811 82.3959 275.806 82.3955L275.566 82.3741C275.552 82.3729 275.538 82.3707 275.524 82.3677C275.285 82.3152 275.177 82.3206 275.133 82.3331C275.126 82.335 275.115 82.3284 275.091 82.3886C275.057 82.474 275.031 82.6161 275.004 82.8644C274.98 83.0911 274.955 83.4158 274.912 83.7761C274.909 83.7989 274.904 83.8213 274.897 83.843L274.764 84.2461C274.755 84.72 274.702 84.9407 274.639 85.1697C274.584 85.3723 274.523 85.5771 274.484 86.082V86.082C274.422 86.8938 274.162 87.5736 273.676 88.0983C273.193 88.6202 272.514 88.9579 271.666 89.1416C271.148 89.2539 270.716 89.2499 270.357 89.1496C269.993 89.0483 269.722 88.854 269.521 88.6214C269.323 88.393 269.196 88.1333 269.106 87.9035C269.061 87.788 269.024 87.6764 268.992 87.5781C268.959 87.4759 268.933 87.3953 268.908 87.3249C268.654 86.628 268.685 85.7547 268.718 84.6236L268.719 84.5712C268.731 84.0289 268.691 83.4641 268.615 83.0088C268.581 82.8017 268.54 82.624 268.497 82.4847C267.328 83.6324 265.84 83.3839 265.206 83.2235C265.038 83.1811 264.851 83.1098 264.686 83.0185C264.534 82.9343 264.345 82.8033 264.246 82.6168C264.191 82.5132 264.156 82.3791 264.19 82.2315C264.223 82.0875 264.31 81.9773 264.408 81.8967C264.591 81.7452 264.882 81.6403 265.263 81.5611L265.263 81.561C265.998 81.4079 266.234 81.3069 266.384 81.186C266.462 81.1236 266.529 81.0459 266.634 80.9121C266.715 80.8085 266.814 80.6775 266.948 80.5198C266.46 80.5127 265.995 80.3821 265.582 80.1565C265.473 80.2746 265.321 80.441 265.14 80.6437C264.761 81.0659 264.255 81.6442 263.74 82.2703L263.74 82.2704C263.352 82.7414 262.924 83.0171 262.456 83.0372C261.991 83.0571 261.579 82.8195 261.233 82.4794C260.55 81.8082 259.963 80.5837 259.482 79.2601C258.995 77.9206 258.597 76.4219 258.315 75.151C258.035 73.8873 257.864 72.8229 257.841 72.3568C257.737 70.2555 258.215 68.8445 259.058 67.9446C259.897 67.0477 261.043 66.7172 262.152 66.6562C263.262 66.5952 264.374 66.8011 265.2 67.0172C265.614 67.1258 265.961 67.2382 266.205 67.3237C266.289 67.353 266.36 67.3792 266.419 67.4011C267.167 66.8774 268.124 66.5583 269.336 66.5784L269.336 66.5784C269.992 66.5893 270.584 66.6518 271.119 66.7582C271.121 66.7575 271.123 66.7568 271.125 66.7561C271.171 66.7403 271.233 66.7199 271.31 66.6967C271.465 66.6501 271.681 66.5911 271.947 66.5337C272.477 66.4191 273.208 66.3096 274.029 66.3195ZM274.021 66.9985C273.261 66.9893 272.582 67.0909 272.087 67.1978C271.84 67.2511 271.641 67.3055 271.502 67.3474C271.433 67.3683 271.379 67.3859 271.343 67.3984C271.325 67.4047 271.312 67.4094 271.304 67.4124C271.303 67.4128 271.302 67.4131 271.302 67.4134C271.277 67.4247 271.251 67.4329 271.224 67.4378L271.197 67.4425C271.155 67.4502 271.112 67.4495 271.07 67.4407C270.573 67.3365 270.016 67.2723 269.386 67.2585L269.325 67.2574C268.169 67.2382 267.313 67.5623 266.671 68.0546C266.576 68.1273 266.45 68.1439 266.34 68.0981H266.34C266.34 68.098 266.34 68.0979 266.34 68.0978C266.339 68.0975 266.338 68.097 266.336 68.0963C266.332 68.0948 266.327 68.0925 266.319 68.0895C266.304 68.0835 266.281 68.0744 266.251 68.0627C266.19 68.0393 266.1 68.0055 265.985 67.9652C265.755 67.8846 265.426 67.7778 265.031 67.6746C264.239 67.4672 263.202 67.2786 262.189 67.3342C261.175 67.39 260.223 67.6873 259.545 68.4113C258.871 69.1321 258.414 70.3351 258.512 72.3229C258.532 72.7267 258.691 73.7427 258.97 75.0025C259.248 76.2552 259.638 77.7231 260.112 79.0258C260.591 80.3444 261.137 81.4377 261.701 81.9925C261.979 82.2653 262.22 82.3677 262.428 82.3587C262.634 82.3499 262.901 82.2277 263.223 81.8361C263.746 81.2004 264.26 80.6145 264.642 80.1878C264.833 79.9743 264.992 79.8004 265.103 79.6797C265.159 79.6193 265.202 79.5723 265.232 79.5402C265.247 79.5242 265.259 79.5119 265.266 79.5036C265.27 79.4994 265.273 79.4962 265.275 79.4941C265.276 79.493 265.277 79.4922 265.278 79.4916C265.278 79.4913 265.278 79.4911 265.278 79.491C265.278 79.4909 265.278 79.4908 265.278 79.4908L265.278 79.4907C265.279 79.4909 265.284 79.4963 265.459 79.6638L265.278 79.4907C265.391 79.3712 265.572 79.3505 265.708 79.4418C266.12 79.719 266.605 79.8658 267.113 79.8377C267.213 79.7755 267.339 79.7698 267.445 79.8258C267.566 79.8899 267.637 80.022 267.624 80.1596C267.612 80.2823 267.616 80.4065 267.641 80.5663C267.656 80.6667 267.626 80.7688 267.559 80.8444C267.385 81.0415 267.269 81.1955 267.16 81.3341C267.054 81.4693 266.946 81.6019 266.803 81.7171C266.512 81.9513 266.125 82.0749 265.398 82.2261C265.225 82.2622 265.095 82.3 265 82.3366C264.969 82.3482 264.944 82.3594 264.922 82.3697C264.947 82.3868 264.975 82.4047 265.008 82.4228C265.119 82.4843 265.253 82.5354 265.369 82.5647C266.032 82.7323 267.423 82.9333 268.369 81.595C268.463 81.4624 268.636 81.4158 268.783 81.4842C268.929 81.5525 269.007 81.7164 268.968 81.8746L268.966 81.8836C269.03 81.9861 269.077 82.1017 269.113 82.2064C269.18 82.4011 269.235 82.6388 269.277 82.8964C269.363 83.4127 269.406 84.0438 269.389 84.6436C269.354 85.8287 269.34 86.5455 269.538 87.0906C269.569 87.1755 269.6 87.2744 269.63 87.3658C269.661 87.4611 269.693 87.5574 269.731 87.6537C269.807 87.8475 269.899 88.0275 270.026 88.174C270.149 88.3163 270.309 88.4321 270.535 88.495C270.765 88.559 271.083 88.5735 271.525 88.4776C272.283 88.3134 272.823 88.0262 273.186 87.6341C273.547 87.2449 273.761 86.7217 273.815 86.0293C273.858 85.4648 273.931 85.214 273.992 84.9893C274.044 84.7994 274.088 84.629 274.094 84.1841L274.094 84.1709C274.095 84.1404 274.101 84.1101 274.111 84.081L274.249 83.6616C274.289 83.3135 274.31 83.0453 274.337 82.7915C274.362 82.5512 274.395 82.3182 274.469 82.1327C274.554 81.922 274.704 81.7485 274.953 81.6787C275.159 81.6211 275.396 81.6464 275.644 81.6995L275.857 81.7183C276.545 81.7489 277.438 81.6015 277.935 81.3681L277.935 81.368C278.216 81.236 278.467 81.0829 278.665 80.9333C278.754 80.8663 278.829 80.8026 278.89 80.7445C278.886 80.7455 278.881 80.7464 278.876 80.7474C278.876 80.7474 278.875 80.7475 278.875 80.7475C277.494 81.0357 276.691 80.9587 276.215 80.7594C275.972 80.6577 275.815 80.5244 275.717 80.3964C275.669 80.3334 275.637 80.2745 275.616 80.2261C275.606 80.2019 275.599 80.1805 275.593 80.1626C275.59 80.1536 275.588 80.1455 275.586 80.1384C275.586 80.1348 275.585 80.1315 275.584 80.1285C275.584 80.1269 275.583 80.1254 275.583 80.124C275.583 80.1233 275.583 80.1226 275.583 80.122C275.583 80.1216 275.582 80.1211 275.582 80.121C275.582 80.1205 275.585 80.1195 275.911 80.0525L275.582 80.12C275.564 80.0308 275.583 79.9381 275.633 79.8627C277.041 77.7502 278.04 75.3504 278.559 73.3198C278.818 72.3041 278.955 71.3916 278.966 70.6608C278.977 69.9101 278.855 69.4221 278.672 69.1856V69.1857C277.348 67.475 275.54 67.0167 274.021 66.9985ZM271.309 67.41C271.309 67.4098 271.31 67.4096 271.31 67.4094C271.31 67.4096 271.309 67.4098 271.309 67.41Z" fill="white"/>
<path d="M268.768 80.9064C268.954 80.9116 269.1 81.0678 269.095 81.2553C269.058 82.5977 269.062 83.9429 269.109 85.032C269.132 85.5768 269.165 86.0538 269.208 86.4324C269.252 86.8226 269.304 87.0749 269.351 87.1933L269.376 87.2559C269.504 87.5733 269.682 87.9536 270.003 88.2273C270.326 88.5018 270.836 88.7045 271.711 88.5151L271.782 88.4992C272.512 88.333 272.965 88.1025 273.268 87.7845C273.58 87.4568 273.772 86.9939 273.894 86.2808L273.894 86.2807C274.079 85.1974 274.437 82.1702 274.483 81.5586C274.497 81.3716 274.658 81.2313 274.843 81.2454C275.028 81.2594 275.166 81.4223 275.152 81.6093C275.105 82.2427 274.744 85.2916 274.556 86.3963C274.424 87.1701 274.197 87.7873 273.752 88.2552C273.307 88.7224 272.685 88.9984 271.851 89.1791H271.851C270.804 89.406 270.074 89.1749 269.571 88.7466C269.088 88.3356 268.858 87.7767 268.727 87.4455L268.727 87.4454C268.643 87.2337 268.585 86.899 268.541 86.51C268.495 86.1094 268.461 85.6149 268.438 85.0611C268.391 83.9527 268.386 82.5911 268.423 81.2363C268.429 81.0488 268.583 80.9011 268.768 80.9064Z" fill="white"/>
<path d="M262.136 66.6083C263.246 66.5439 264.359 66.7464 265.185 66.9601C265.6 67.0674 265.947 67.1788 266.191 67.2635C266.313 67.3059 266.41 67.3417 266.476 67.3672C266.51 67.3799 266.536 67.3901 266.553 67.3972C266.562 67.4008 266.569 67.4035 266.574 67.4055C266.577 67.4065 266.578 67.4073 266.58 67.4078C266.58 67.4081 266.581 67.4083 266.581 67.4085C266.582 67.4086 266.582 67.4087 266.582 67.4087C266.582 67.4088 266.582 67.4089 266.462 67.7053L266.582 67.4089C266.754 67.4798 266.836 67.678 266.766 67.8516C266.696 68.0251 266.5 68.1083 266.328 68.0375H266.328C266.328 68.0374 266.328 68.0373 266.328 68.0372C266.327 68.0369 266.326 68.0364 266.324 68.0357C266.32 68.0342 266.315 68.032 266.307 68.029C266.292 68.0229 266.269 68.0139 266.239 68.0023C266.178 67.9791 266.088 67.9457 265.973 67.9057C265.743 67.8257 265.413 67.72 265.019 67.618C264.226 67.4129 263.188 67.2274 262.174 67.2862C261.16 67.3451 260.206 67.6454 259.528 68.372C258.852 69.0955 258.395 70.3004 258.493 72.288L258.496 72.3276C258.523 72.7556 258.681 73.7472 258.952 74.9677C259.229 76.2204 259.62 77.6884 260.093 78.9911C260.573 80.3097 261.118 81.4031 261.683 81.9578C261.96 82.2307 262.201 82.333 262.409 82.3241C262.615 82.3153 262.883 82.1931 263.205 81.8014C263.728 81.1656 264.225 80.5988 264.592 80.1911C264.775 79.9871 264.926 79.8228 265.031 79.7092C265.083 79.6524 265.125 79.6083 265.153 79.5783C265.167 79.5633 265.178 79.5518 265.185 79.544C265.189 79.5402 265.191 79.5372 265.193 79.5351C265.194 79.5341 265.195 79.5334 265.196 79.5328C265.196 79.5326 265.196 79.5323 265.196 79.5322C265.196 79.5321 265.196 79.5321 265.196 79.532L265.196 79.532C265.196 79.5319 265.197 79.5323 265.439 79.7669L265.196 79.532C265.325 79.3966 265.537 79.392 265.671 79.5218C265.801 79.6475 265.809 79.8531 265.693 79.9889L265.681 80.0018H265.681C265.681 80.0018 265.681 80.0019 265.681 80.0019C265.681 80.002 265.681 80.0021 265.681 80.0024C265.68 80.0028 265.68 80.0034 265.679 80.0043C265.677 80.0061 265.675 80.0089 265.671 80.0126C265.664 80.0199 265.654 80.0309 265.64 80.0454C265.613 80.0745 265.573 80.1176 265.521 80.1733C265.418 80.2847 265.269 80.4466 265.088 80.6478C264.727 81.0504 264.236 81.6095 263.721 82.2356L263.721 82.2357C263.334 82.7067 262.906 82.9824 262.438 83.0025C261.972 83.0225 261.561 82.7849 261.215 82.4448C260.532 81.7736 259.944 80.5491 259.463 79.2254C258.976 77.8858 258.578 76.3871 258.296 75.1161C258.016 73.8524 257.846 72.7879 257.823 72.3219C257.719 70.2205 258.197 68.8081 259.04 67.9059C259.879 67.0068 261.025 66.6727 262.136 66.6083Z" fill="white"/>
<path d="M273.824 66.2855C275.498 66.2698 277.634 66.7326 279.182 68.7332V68.7332C279.515 69.1636 279.63 69.8569 279.618 70.6373C279.606 71.4375 279.458 72.4056 279.19 73.4557C278.653 75.5564 277.624 78.0279 276.171 80.2084C276.067 80.3639 275.858 80.405 275.705 80.3002C275.551 80.1954 275.51 79.9844 275.614 79.8289C277.022 77.7163 278.021 75.3165 278.54 73.2859C278.799 72.2702 278.936 71.3576 278.947 70.6268C278.958 69.8762 278.836 69.3882 278.653 69.1517V69.1516C277.279 67.3768 275.383 66.9499 273.831 66.9645C273.055 66.9718 272.374 67.0899 271.906 67.2005C271.673 67.2557 271.494 67.3087 271.385 67.344C271.351 67.3549 271.325 67.3639 271.307 67.3704C271.29 67.3787 271.273 67.3859 271.255 67.3916C271.249 67.3934 271.237 67.3974 271.223 67.4008C271.219 67.4018 271.212 67.4034 271.203 67.4049C271.198 67.4059 271.179 67.4094 271.154 67.4103C271.14 67.4105 271.103 67.4082 271.08 67.4046C271.039 67.3939 270.927 67.3318 270.87 67.2695C270.82 67.166 270.82 66.9765 270.849 66.9062C270.869 66.8736 270.907 66.8283 270.923 66.8139C270.948 66.7917 270.971 66.7785 270.976 66.7759C270.984 66.7708 270.992 66.7671 270.996 66.7651C271.004 66.7609 271.011 66.7577 271.015 66.756C271.024 66.7522 271.033 66.7487 271.04 66.7458C271.07 66.7343 271.118 66.7175 271.18 66.6974C271.305 66.6567 271.502 66.5988 271.753 66.5393C272.256 66.4205 272.987 66.2934 273.824 66.2855Z" fill="white"/>
<path d="M266.09 67.6056C266.877 66.9434 267.929 66.5213 269.317 66.5444C272.069 66.59 273.885 68.0206 274.976 69.4312C275.52 70.135 275.888 70.8377 276.108 71.3713C276.217 71.6374 276.292 71.8674 276.334 72.0394C276.354 72.1229 276.369 72.2059 276.373 72.278C276.375 72.3106 276.376 72.3653 276.362 72.424C276.354 72.4575 276.302 72.6518 276.089 72.6963L275.968 72.6991C274.59 72.476 273.958 72.7127 273.684 73.03C273.405 73.353 273.367 73.9045 273.549 74.6434C273.726 75.3605 274.083 76.1421 274.426 76.8073C274.596 77.1379 274.76 77.4344 274.894 77.6767C275.021 77.9076 275.135 78.1134 275.185 78.2366L275.201 78.275C275.367 78.6683 275.571 78.9487 275.756 79.1841C275.847 79.3008 275.948 79.4246 276.026 79.5364C276.101 79.6451 276.179 79.7753 276.216 79.9259C276.218 79.9299 276.222 79.9373 276.229 79.947C276.251 79.9753 276.311 80.0387 276.453 80.0983C276.747 80.2215 277.393 80.3258 278.721 80.0486L278.751 80.0424C278.902 80.0124 279.039 79.9974 279.159 80.0016C279.28 80.0057 279.427 80.0305 279.548 80.1239C279.693 80.2354 279.746 80.4004 279.731 80.5546C279.718 80.6873 279.659 80.8046 279.6 80.8943C279.479 81.0786 279.28 81.2692 279.047 81.4441C278.81 81.6228 278.52 81.7996 278.199 81.9504L278.199 81.9504C277.648 82.209 276.796 82.3591 276.084 82.367C275.727 82.371 275.376 82.3399 275.1 82.2531C274.856 82.1763 274.504 81.9982 274.482 81.6036V81.6035C274.456 81.1506 274.521 80.8029 274.664 80.5376C274.811 80.2654 275.021 80.1159 275.216 80.0271C275.31 79.9842 275.401 79.9554 275.474 79.934C275.476 79.9334 275.478 79.9329 275.48 79.9323C275.479 79.9304 275.478 79.9284 275.476 79.9265C275.414 79.8361 275.335 79.7414 275.229 79.6057C275.031 79.3521 274.784 79.0168 274.583 78.5419L274.564 78.4955C274.533 78.4194 274.446 78.2598 274.307 78.0073C274.174 77.7663 274.006 77.4615 273.83 77.1211C273.481 76.4443 273.094 75.605 272.898 74.8077C272.706 74.0323 272.666 73.1759 273.178 72.5832C273.637 72.0519 274.441 71.845 275.613 71.9668C275.58 71.8695 275.539 71.7571 275.488 71.6322C275.288 71.1478 274.95 70.4995 274.447 69.8495C273.444 68.5526 271.802 67.2647 269.306 67.2233C268.07 67.2028 267.177 67.5745 266.52 68.1274C265.857 68.6856 265.414 69.4468 265.121 70.2331C264.828 71.0185 264.69 71.8118 264.626 72.4125C264.594 72.7119 264.581 72.9611 264.575 73.1344C264.573 73.221 264.572 73.2885 264.572 73.3337C264.572 73.3563 264.572 73.3733 264.572 73.3843C264.572 73.3897 264.572 73.3937 264.572 73.3962C264.572 73.3974 264.572 73.3983 264.572 73.3987V73.399C264.577 73.5864 264.431 73.7422 264.246 73.7472C264.06 73.7521 263.906 73.6041 263.901 73.4167L264.237 73.4078L263.943 73.4155C263.903 73.4165 263.901 73.4165 263.901 73.4164C263.901 73.4163 263.901 73.416 263.901 73.4159C263.901 73.4155 263.901 73.415 263.901 73.4144C263.901 73.4133 263.901 73.4117 263.901 73.4098C263.901 73.4058 263.901 73.4004 263.901 73.3934C263.901 73.3793 263.9 73.3592 263.9 73.3334C263.9 73.2818 263.901 73.2073 263.904 73.1133C263.91 72.9255 263.924 72.6589 263.958 72.3398C264.026 71.7037 264.173 70.8497 264.492 69.9933C264.812 69.1377 265.31 68.2624 266.09 67.6056ZM275.858 80.5267C275.795 80.5491 275.713 80.5711 275.661 80.5862C275.599 80.6045 275.543 80.6228 275.492 80.6463C275.395 80.6904 275.314 80.7513 275.253 80.8628C275.191 80.9785 275.134 81.1807 275.151 81.5374C275.167 81.5508 275.208 81.576 275.299 81.6047C275.48 81.6613 275.751 81.6917 276.077 81.6881C276.729 81.6808 277.479 81.5397 277.916 81.3345C278.197 81.2025 278.448 81.0492 278.646 80.8997C278.735 80.8326 278.81 80.7688 278.872 80.7106C278.867 80.7116 278.862 80.7126 278.857 80.7136H278.857C277.475 81.002 276.672 80.925 276.196 80.7257C276.057 80.6674 275.946 80.5988 275.858 80.5267ZM276.22 79.9449L276.22 79.9452C276.22 79.9447 276.22 79.9443 276.22 79.944C276.22 79.9418 276.219 79.9398 276.219 79.938C276.218 79.9376 276.218 79.9372 276.218 79.9368C276.219 79.9395 276.22 79.9422 276.22 79.9449Z" fill="white"/>
<path d="M267.76 79.9447C267.998 79.9237 268.195 80.0091 268.3 80.0531L268.3 80.0531C268.632 80.1922 268.883 80.5102 269.004 80.8415C269.127 81.176 269.145 81.604 268.897 81.9557C267.692 83.6618 265.901 83.3701 265.188 83.1897C265.02 83.1473 264.832 83.0761 264.667 82.9848C264.515 82.9006 264.327 82.7697 264.227 82.5831C264.172 82.4796 264.138 82.3455 264.172 82.1979C264.204 82.0539 264.291 81.9436 264.389 81.8631C264.573 81.7116 264.864 81.6067 265.244 81.5274H265.244C265.98 81.3743 266.216 81.2732 266.366 81.1523C266.443 81.0899 266.51 81.0122 266.615 80.8784C266.718 80.7478 266.849 80.5739 267.04 80.3579C267.267 80.1008 267.507 79.967 267.76 79.9447ZM268.004 80.6642C267.917 80.6294 267.867 80.6168 267.819 80.6211C267.779 80.6246 267.687 80.6451 267.541 80.8105L267.541 80.8108C267.366 81.0078 267.25 81.1618 267.141 81.3003C267.035 81.4356 266.927 81.5681 266.784 81.6833C266.494 81.9175 266.106 82.0412 265.38 82.1924L265.38 82.1925C265.207 82.2285 265.077 82.2664 264.981 82.303C264.951 82.3146 264.925 82.3258 264.904 82.336C264.928 82.3531 264.957 82.371 264.99 82.3891C265.101 82.4506 265.234 82.5017 265.35 82.531H265.351C266.013 82.6987 267.405 82.8996 268.35 81.5611L268.358 81.5504C268.43 81.4383 268.445 81.2694 268.374 81.0774C268.3 80.8759 268.161 80.7298 268.043 80.6804L268.004 80.6642Z" fill="white"/>
<path d="M265.947 72.1425C266.439 72.0278 266.995 71.991 267.479 72.1802C267.99 72.3795 268.371 72.8098 268.521 73.5099H268.521C268.873 75.1563 268.834 76.266 268.645 77.1073C268.551 77.526 268.422 77.8694 268.295 78.1682C268.163 78.4801 268.052 78.7031 267.962 78.9479C267.835 79.2943 267.722 79.5899 267.647 79.8621C267.573 80.1335 267.547 80.345 267.573 80.5182C267.601 80.7035 267.476 80.8768 267.292 80.9052C267.109 80.9337 266.938 80.8065 266.91 80.6212C266.903 80.5761 266.898 80.5309 266.895 80.4856C265.037 80.4396 263.56 78.6178 263.846 76.5501V76.55C264.056 75.036 263.898 73.7897 263.9 73.4055V73.4054C263.901 73.2581 263.985 73.1515 264.016 73.1137C264.061 73.0585 264.117 73.0067 264.174 72.96C264.289 72.8654 264.443 72.7631 264.62 72.6638C264.973 72.4648 265.449 72.2587 265.947 72.1425ZM267.237 72.8136C266.932 72.6945 266.531 72.7032 266.098 72.8042C265.672 72.9036 265.255 73.0834 264.946 73.257C264.792 73.344 264.673 73.4248 264.598 73.4869C264.589 73.4939 264.582 73.5004 264.575 73.5062C264.595 73.9244 264.709 75.2147 264.511 76.6441C264.271 78.3783 265.524 79.8025 266.967 79.807C266.978 79.7645 266.989 79.7222 267 79.6801C267.085 79.3728 267.212 79.0413 267.333 78.7116L267.333 78.7114C267.429 78.4489 267.566 78.1646 267.678 77.9003C267.796 77.6229 267.909 77.3211 267.99 76.957C268.153 76.2326 268.2 75.2255 267.864 73.6534L267.854 73.6074C267.742 73.1399 267.508 72.9192 267.237 72.8136ZM264.534 73.5458C264.528 73.554 264.529 73.5534 264.535 73.5451C264.535 73.5453 264.534 73.5456 264.534 73.5458Z" fill="white"/>
<path d="M266.424 73.3588C266.408 73.4699 266.625 73.7663 266.907 73.8059C267.189 73.8456 267.431 73.614 267.446 73.503C267.461 73.392 267.245 73.2696 266.962 73.2299C266.68 73.19 266.439 73.248 266.424 73.3588H266.424Z" fill="white"/>
<path d="M266.566 73.1281C266.68 73.1007 266.825 73.0968 266.976 73.1182L266.976 73.1182C267.128 73.1395 267.267 73.1834 267.369 73.2413C267.42 73.27 267.467 73.3052 267.502 73.3476C267.536 73.39 267.565 73.4494 267.555 73.5191C267.547 73.5763 267.515 73.6308 267.481 73.6741C267.444 73.7202 267.395 73.7658 267.338 73.805C267.224 73.883 267.066 73.943 266.891 73.9183V73.9184C266.717 73.894 266.57 73.7925 266.471 73.6875C266.421 73.6344 266.38 73.5772 266.352 73.5224C266.327 73.4725 266.303 73.4069 266.311 73.3433L266.325 73.246H266.353C266.37 73.2249 266.39 73.2075 266.409 73.1936C266.454 73.1624 266.509 73.1417 266.566 73.1281ZM266.945 73.3423C266.815 73.3238 266.698 73.3289 266.617 73.3483C266.576 73.3581 266.551 73.3701 266.537 73.3797C266.536 73.38 266.536 73.3804 266.536 73.3807C266.538 73.388 266.542 73.4004 266.551 73.4183C266.568 73.4516 266.596 73.4916 266.633 73.5315C266.71 73.6123 266.813 73.6789 266.921 73.6942H266.921C267.028 73.7092 267.131 73.6733 267.212 73.6177C267.253 73.5901 267.285 73.5595 267.306 73.5322C267.32 73.5144 267.327 73.5014 267.331 73.4942C267.33 73.4934 267.33 73.4924 267.329 73.4914C267.318 73.4783 267.296 73.4596 267.26 73.4389C267.187 73.3979 267.077 73.3608 266.945 73.3423H266.945Z" fill="white"/>
<path d="M275.013 73.1332C275.028 73.2443 274.812 73.5407 274.529 73.5803C274.247 73.62 274.005 73.3884 273.99 73.2774C273.975 73.1664 274.191 73.044 274.474 73.0042C274.756 72.9645 274.997 73.0224 275.013 73.1332V73.1332Z" fill="white"/>
<path d="M274.464 72.9477C274.611 72.9271 274.749 72.9313 274.855 72.9566C274.907 72.9693 274.955 72.9878 274.992 73.0136C275.029 73.0394 275.06 73.0762 275.066 73.1249H275.066C275.073 73.1704 275.055 73.2229 275.031 73.2698C275.006 73.3192 274.968 73.3722 274.921 73.422C274.828 73.521 274.693 73.6136 274.535 73.6357L274.535 73.6358C274.377 73.6581 274.232 73.6041 274.126 73.5317C274.073 73.4954 274.029 73.4535 273.996 73.4121C273.964 73.3721 273.939 73.3273 273.933 73.2848L273.933 73.2845C273.926 73.2358 273.946 73.192 273.975 73.1569C274.003 73.1219 274.044 73.0909 274.091 73.0642C274.186 73.0105 274.318 72.9683 274.464 72.9477ZM274.829 73.0668C274.74 73.0454 274.616 73.0406 274.48 73.0597C274.344 73.0789 274.226 73.1177 274.146 73.163C274.106 73.1857 274.078 73.2085 274.061 73.229C274.045 73.2492 274.043 73.2622 274.044 73.2691C274.046 73.2822 274.056 73.3078 274.083 73.3411C274.108 73.3731 274.145 73.4075 274.189 73.438C274.279 73.4992 274.396 73.5411 274.52 73.5237H274.52C274.645 73.5062 274.758 73.4309 274.84 73.344C274.881 73.3008 274.912 73.2564 274.932 73.2178C274.953 73.1768 274.957 73.1505 274.956 73.1405L274.955 73.1377C274.953 73.1307 274.947 73.1198 274.928 73.1067C274.907 73.0917 274.874 73.0775 274.829 73.0668Z" fill="white"/>
<path d="M276.002 72.0249C276.187 72.0148 276.345 72.1584 276.355 72.3457C276.381 72.8172 276.33 73.2115 276.273 73.5898C276.216 73.9705 276.155 74.3279 276.141 74.7669V74.7672C276.131 75.0765 276.162 75.4035 276.204 75.7612C276.244 76.1117 276.295 76.4952 276.314 76.8836C276.353 77.6728 276.263 78.5264 275.697 79.3811C275.594 79.5369 275.385 79.5787 275.231 79.4743C275.077 79.37 275.036 79.1591 275.139 79.0033C275.596 78.3131 275.678 77.6227 275.644 76.9171C275.626 76.5581 275.579 76.2066 275.537 75.8403C275.495 75.4813 275.458 75.1098 275.47 74.7451C275.485 74.2568 275.554 73.8538 275.609 73.4881C275.664 73.12 275.706 72.7819 275.685 72.3822C275.675 72.195 275.817 72.035 276.002 72.0249Z" fill="white"/>
<path d="M293.229 76.7876H288.237V71.7528H293.501C295.428 71.7528 296.391 72.6042 296.391 74.3103C296.391 76.0165 295.337 76.791 293.229 76.791M296.816 71.697C296.127 71.0829 295.174 70.7759 293.946 70.7759L286.797 70.8143V82.862H288.237L288.223 77.7331H293.542C294.875 77.7331 295.925 77.4261 296.694 76.812C297.463 76.1979 297.842 75.3466 297.842 74.2545C297.842 73.1624 297.501 72.3111 296.816 71.697ZM306.139 80.3325C306 80.7267 305.767 81.0791 305.454 81.3582C304.807 81.9898 303.826 82.3038 302.5 82.3038C301.303 82.3038 300.389 82.0002 299.745 81.3827C299.101 80.7651 298.785 79.9487 298.785 78.9159C298.785 78.3786 298.868 77.9041 299.035 77.4889C299.202 77.0737 299.446 76.7248 299.766 76.4386C300.427 75.8315 301.338 75.5315 302.5 75.5315C305.071 75.5315 306.358 76.6619 306.358 78.9194C306.358 79.4567 306.285 79.9277 306.142 80.3325M306.403 75.8874C305.527 75.0849 304.226 74.6802 302.504 74.6802C300.879 74.6802 299.62 75.0884 298.733 75.9083C297.932 76.6515 297.529 77.6528 297.529 78.9124C297.529 80.172 297.943 81.1733 298.767 81.9409C299.223 82.3561 299.755 82.6562 300.361 82.8411C300.966 83.026 301.679 83.1202 302.497 83.1202C304.208 83.1202 305.509 82.7225 306.407 81.9305C307.207 81.2047 307.61 80.2034 307.61 78.9124C307.61 77.6214 307.207 76.6096 306.396 75.8839L306.403 75.8874ZM317.295 80.6849C317.295 82.3073 315.848 83.1167 312.95 83.1167C312.063 83.1167 311.319 83.0609 310.714 82.9493C310.108 82.8376 309.614 82.6492 309.239 82.3875C308.946 82.1886 308.706 81.9235 308.543 81.6095C308.372 81.2885 308.258 80.8872 308.209 80.4022L309.555 80.3883C309.555 81.0268 309.792 81.4978 310.261 81.7979C310.769 82.1607 311.663 82.3422 312.95 82.3422C314.975 82.3422 315.987 81.8328 315.987 80.8139C315.987 80.2173 315.643 79.8091 314.968 79.5858C314.829 79.5439 314.011 79.4288 312.516 79.2439C311.02 79.0589 310.08 78.8915 309.712 78.7449C308.912 78.4239 308.511 77.8517 308.511 77.0248C308.511 76.1979 308.87 75.6082 309.586 75.214C309.938 75.05 310.38 74.9244 310.908 74.8337C311.437 74.743 312.049 74.6976 312.749 74.6976C315.539 74.6976 316.934 75.5768 316.934 77.3284H315.65C315.65 76.0932 314.669 75.4722 312.71 75.4722C311.712 75.4722 310.968 75.6013 310.48 75.849C309.993 76.0967 309.746 76.484 309.746 77.0004C309.746 77.4854 310.077 77.8343 310.738 78.0506C311.124 78.1623 312.015 78.2913 313.41 78.4379C314.655 78.5495 315.511 78.71 315.977 78.9124C316.864 79.2578 317.306 79.844 317.306 80.6709L317.295 80.6849ZM322.59 82.883L322.04 82.9597L321.7 82.9842C320.823 82.9842 320.193 82.8585 319.8 82.6004C319.407 82.3422 319.219 81.8991 319.219 81.264V75.7618H317.626V74.9523H319.212L319.226 72.3529H320.454V74.9523H322.594V75.7722L320.454 75.7583V81.107C320.454 81.5048 320.559 81.7804 320.771 81.927C320.983 82.0735 321.359 82.1538 321.901 82.1538C321.978 82.1607 322.065 82.1607 322.159 82.1468C322.301 82.1224 322.444 82.0875 322.583 82.0491L322.597 82.869V82.8795L322.59 82.883ZM331.085 81.0582C330.751 81.3338 330.369 81.5467 329.937 81.6932C329.506 81.8397 329.012 81.9095 328.455 81.9095C325.885 81.9095 324.601 80.8454 324.601 78.717C324.601 77.7261 324.928 76.9515 325.589 76.3898C326.25 75.8281 327.172 75.5489 328.368 75.5489C329.565 75.5489 330.484 75.8315 331.11 76.3968C331.736 76.962 332.045 77.7191 332.045 78.6682C332.045 79.7009 331.725 80.4999 331.092 81.0617M333.277 74.9628H332.049L332.035 76.3235C331.492 75.7722 331.106 75.4233 330.873 75.2768C330.184 74.8965 329.294 74.7081 328.201 74.7081C326.601 74.7081 325.38 75.0744 324.538 75.8071C323.738 76.4805 323.338 77.454 323.338 78.731C323.338 79.3625 323.439 79.9242 323.641 80.4127C323.843 80.9012 324.138 81.3303 324.524 81.6723C325.37 82.3805 326.563 82.7329 328.104 82.7329C329.955 82.7329 331.27 82.2235 332.045 81.2082V82.6143C332.045 83.511 331.764 84.2053 331.2 84.6973C330.637 85.1892 329.711 85.43 328.421 85.43C327.206 85.43 326.344 85.259 325.829 84.9276C325.443 84.6694 325.175 84.2228 325.029 83.5878H323.762C323.902 84.474 324.277 85.116 324.883 85.5137C325.589 85.9708 326.775 86.1976 328.455 86.1976C331.666 86.1976 333.274 85.0008 333.274 82.6073V74.9628H333.277ZM339.925 75.7583C339.556 75.699 339.212 75.6711 338.895 75.6711C336.874 75.6711 335.865 76.7806 335.865 79.0031V82.8655H334.648L334.634 74.9593L335.862 74.9697V76.3793H335.928C336.133 75.8246 336.46 75.4024 336.909 75.1163C337.399 74.8372 338.13 74.7011 339.1 74.7011H339.925V75.7548V75.7583ZM341.066 78.417C341.223 77.5203 341.57 76.8224 342.11 76.3305C342.461 76.0444 342.861 75.8315 343.31 75.6885C343.759 75.5454 344.256 75.4757 344.82 75.4757C345.912 75.4757 346.799 75.7757 347.495 76.3758C348.191 76.976 348.531 77.6563 348.531 78.417H341.066ZM348.653 75.9781C348.222 75.5454 347.69 75.2245 347.053 75.0186C346.416 74.8127 345.675 74.7081 344.816 74.7081C343.223 74.7081 341.988 75.0779 341.111 75.8211C340.235 76.5643 339.796 77.5726 339.796 78.8496C339.796 80.1266 340.217 81.1349 341.063 81.8921C341.974 82.719 343.258 83.1342 344.92 83.1342C345.581 83.1342 346.194 83.0574 346.757 82.9074C347.321 82.7574 347.815 82.5445 348.236 82.2689C348.977 81.7351 349.443 81.0791 349.641 80.2976H348.312C347.857 81.6478 346.723 82.3247 344.907 82.3247C343.626 82.3247 342.642 81.9933 341.953 81.3338C341.358 80.7686 341.063 80.0324 341.063 79.1322H349.822C349.822 77.7924 349.436 76.7387 348.646 75.9816H348.65L348.653 75.9781Z" fill="white"/>
<path d="M362.817 79.6277C362.817 81.9759 360.928 83.1482 357.153 83.1482C354.892 83.1482 353.24 82.7434 352.2 81.941C351.347 81.278 350.923 80.2627 350.923 78.8985H352.443C352.443 81.0896 354.012 82.1852 357.153 82.1852C358.66 82.1852 359.749 81.9619 360.423 81.5118C360.99 81.114 361.276 80.493 361.276 79.6486C361.276 78.8043 360.89 78.2251 360.114 77.8901C359.675 77.7087 358.607 77.4819 356.899 77.2063C354.756 76.8783 353.368 76.5503 352.732 76.2224C351.81 75.7374 351.354 74.9209 351.354 73.7661C351.354 72.6879 351.74 71.8854 352.53 71.3621C353.372 70.7864 354.819 70.4968 356.865 70.4968C360.566 70.4968 362.413 71.7284 362.413 74.1952H360.879C360.879 72.3495 359.505 71.4249 356.757 71.4249C355.379 71.4249 354.37 71.6098 353.734 71.9866C353.132 72.3844 352.829 72.9671 352.829 73.7347C352.829 74.5023 353.215 75.1024 353.991 75.4303C354.405 75.6188 355.616 75.8839 357.63 76.2189C359.522 76.505 360.799 76.8364 361.46 77.2098C362.365 77.6773 362.817 78.4833 362.817 79.6277ZM375.167 80.8245C374.599 81.2815 373.956 81.6235 373.243 81.8502C372.53 82.077 371.726 82.1922 370.839 82.1922C369.03 82.1922 367.569 81.7037 366.452 80.7268C365.335 79.7498 364.779 78.4449 364.779 76.819C364.779 75.1931 365.332 73.8009 366.438 72.8519C367.545 71.9029 369.013 71.4319 370.835 71.4319C372.658 71.4319 374.144 71.9273 375.201 72.9182C375.761 73.4032 376.175 73.9649 376.44 74.6104C376.704 75.2559 376.84 75.9921 376.84 76.819C376.84 78.5077 376.28 79.8405 375.16 80.8245M375.967 81.6235C376.76 81.0617 377.344 80.3848 377.723 79.5858C378.103 78.7868 378.29 77.8692 378.29 76.826C378.29 74.9558 377.671 73.459 376.433 72.3251C375.772 71.704 374.972 71.2435 374.032 70.9399C373.093 70.6364 372.022 70.4863 370.818 70.4863C368.477 70.4863 366.643 71.055 365.311 72.1925C363.979 73.3299 363.311 74.8721 363.311 76.8225C363.311 78.7729 363.982 80.2488 365.329 81.4106C366.675 82.5725 368.515 83.1552 370.846 83.1552C371.757 83.1552 372.554 83.0924 373.232 82.9702C373.911 82.8481 374.488 82.6562 374.961 82.4015L377.205 83.9611L378.144 83.0958L375.97 81.6165H375.967V81.6235ZM389.67 82.8551H379.282V70.7899L380.708 70.7655V81.8468H389.677L389.663 82.8551H389.666H389.67Z" fill="white"/>
<path d="M514.139 83.4262C512.907 83.4262 512.016 83.0658 511.465 82.3449C510.915 81.6241 510.639 80.6805 510.639 79.5141V75.8575H509.322V73.5181L510.816 73.4001L511.19 70.4316H513.785V73.4001H516.065V75.8575H513.785V79.4747C513.785 80.0121 513.896 80.3987 514.119 80.6346C514.355 80.8574 514.65 80.9688 515.004 80.9688C515.161 80.9688 515.318 80.9623 515.475 80.9492C515.633 80.9229 515.77 80.8836 515.888 80.8312L516.38 83.0133C516.131 83.1182 515.816 83.2099 515.436 83.2886C515.056 83.3803 514.624 83.4262 514.139 83.4262Z" fill="white"/>
<path d="M504.482 83.1896V73.3995H507.627V83.1896H504.482ZM506.054 72.0823C505.543 72.0823 505.124 71.9382 504.796 71.6498C504.469 71.3484 504.305 70.9552 504.305 70.4703C504.305 69.9854 504.469 69.5988 504.796 69.3104C505.124 69.0221 505.543 68.8779 506.054 68.8779C506.579 68.8779 506.998 69.0221 507.312 69.3104C507.64 69.5988 507.804 69.9854 507.804 70.4703C507.804 70.9552 507.64 71.3484 507.312 71.6498C506.998 71.9382 506.579 72.0823 506.054 72.0823Z" fill="white"/>
<path d="M492.561 83.1905V70.3926H497.062C497.954 70.3926 498.76 70.4909 499.48 70.6875C500.201 70.8709 500.771 71.192 501.191 71.6507C501.623 72.1095 501.84 72.7516 501.84 73.5773C501.84 74.2064 501.695 74.7765 501.407 75.2876C501.119 75.7857 500.712 76.133 500.188 76.3296V76.4082C500.896 76.5786 501.446 76.8931 501.84 77.3518C502.246 77.8105 502.449 78.4527 502.449 79.2784C502.449 80.1827 502.22 80.9232 501.761 81.4999C501.315 82.0765 500.712 82.5025 499.952 82.7777C499.205 83.0529 498.366 83.1905 497.436 83.1905H492.561ZM495.706 75.4646H496.964C497.58 75.4646 498.032 75.3401 498.321 75.0911C498.622 74.8289 498.773 74.4816 498.773 74.0491C498.773 73.6035 498.622 73.289 498.321 73.1055C498.032 72.9089 497.58 72.8106 496.964 72.8106H495.706V75.4646ZM495.706 80.7725H497.2C497.934 80.7725 498.478 80.6414 498.832 80.3793C499.199 80.1172 499.382 79.724 499.382 79.1998C499.382 78.6886 499.199 78.3217 498.832 78.0989C498.478 77.8761 497.934 77.7647 497.2 77.7647H495.706V80.7725Z" fill="white"/>
<path d="M480.763 83.1901V73.4H483.318L483.554 74.5992H483.613C484.02 74.2191 484.472 73.8849 484.97 73.5966C485.481 73.3082 486.071 73.1641 486.739 73.1641C487.814 73.1641 488.587 73.5245 489.059 74.2453C489.544 74.953 489.786 75.9163 489.786 77.1352V83.1901H486.66V77.5283C486.66 76.873 486.569 76.4274 486.385 76.1915C486.215 75.9556 485.94 75.8377 485.559 75.8377C485.219 75.8377 484.93 75.9098 484.694 76.0539C484.459 76.1981 484.196 76.4078 483.908 76.683V83.1901H480.763Z" fill="white"/>
<path d="M473.891 83.426C473.052 83.426 472.266 83.2229 471.532 82.8166C470.811 82.4103 470.221 81.8271 469.762 81.0669C469.304 80.3068 469.074 79.3828 469.074 78.295C469.074 77.2072 469.304 76.2833 469.762 75.5231C470.221 74.763 470.811 74.1798 471.532 73.7735C472.266 73.3672 473.052 73.1641 473.891 73.1641C474.716 73.1641 475.496 73.3672 476.23 73.7735C476.964 74.1798 477.56 74.763 478.019 75.5231C478.478 76.2833 478.707 77.2072 478.707 78.295C478.707 79.3828 478.478 80.3068 478.019 81.0669C477.56 81.8271 476.964 82.4103 476.23 82.8166C475.496 83.2229 474.716 83.426 473.891 83.426ZM473.891 80.9097C474.258 80.9097 474.559 80.8048 474.795 80.5951C475.031 80.3723 475.201 80.0709 475.306 79.6908C475.424 79.2976 475.483 78.8324 475.483 78.295C475.483 77.7708 475.424 77.3121 475.306 76.9189C475.201 76.5257 475.031 76.2243 474.795 76.0146C474.559 75.7918 474.258 75.6804 473.891 75.6804C473.524 75.6804 473.216 75.7918 472.967 76.0146C472.731 76.2243 472.554 76.5257 472.436 76.9189C472.331 77.3121 472.279 77.7708 472.279 78.295C472.279 78.8324 472.331 79.2976 472.436 79.6908C472.554 80.0709 472.731 80.3723 472.967 80.5951C473.216 80.8048 473.524 80.9097 473.891 80.9097Z" fill="white"/>
<path d="M462.731 83.426C461.893 83.426 461.106 83.2229 460.372 82.8166C459.652 82.4103 459.062 81.8271 458.603 81.0669C458.144 80.3068 457.915 79.3828 457.915 78.295C457.915 77.2072 458.144 76.2833 458.603 75.5231C459.062 74.763 459.652 74.1798 460.372 73.7735C461.106 73.3672 461.893 73.1641 462.731 73.1641C463.557 73.1641 464.337 73.3672 465.071 73.7735C465.805 74.1798 466.401 74.763 466.86 75.5231C467.319 76.2833 467.548 77.2072 467.548 78.295C467.548 79.3828 467.319 80.3068 466.86 81.0669C466.401 81.8271 465.805 82.4103 465.071 82.8166C464.337 83.2229 463.557 83.426 462.731 83.426ZM462.731 80.9097C463.098 80.9097 463.4 80.8048 463.636 80.5951C463.872 80.3723 464.042 80.0709 464.147 79.6908C464.265 79.2976 464.324 78.8324 464.324 78.295C464.324 77.7708 464.265 77.3121 464.147 76.9189C464.042 76.5257 463.872 76.2243 463.636 76.0146C463.4 75.7918 463.098 75.6804 462.731 75.6804C462.364 75.6804 462.057 75.7918 461.807 76.0146C461.572 76.2243 461.395 76.5257 461.277 76.9189C461.172 77.3121 461.119 77.7708 461.119 78.295C461.119 78.8324 461.172 79.2976 461.277 79.6908C461.395 80.0709 461.572 80.3723 461.807 80.5951C462.057 80.8048 462.364 80.9097 462.731 80.9097Z" fill="white"/>
<path d="M443.396 83.1905V70.3926H446.836L448.821 75.8578C448.939 76.2247 449.051 76.6048 449.156 76.998C449.26 77.378 449.372 77.7647 449.49 78.1578H449.568C449.686 77.7647 449.798 77.378 449.903 76.998C450.021 76.6048 450.138 76.2247 450.256 75.8578L452.183 70.3926H455.604V83.1905H452.753V78.9639C452.753 78.5314 452.773 78.0202 452.812 77.4305C452.865 76.8407 452.917 76.2509 452.969 75.6612C453.035 75.0714 453.094 74.5668 453.146 74.1474H453.068L452.026 77.5681L450.335 82.1093H448.585L446.914 77.5681L445.892 74.1474H445.814C445.866 74.5668 445.918 75.0714 445.971 75.6612C446.036 76.2509 446.095 76.8407 446.148 77.4305C446.2 78.0202 446.226 78.5314 446.226 78.9639V83.1905H443.396Z" fill="white"/>
<path d="M429.917 74.9565C433.865 74.9288 435.645 76.9142 435.645 79.2944C435.644 81.6745 433.008 83.5756 429.917 83.5757C426.631 83.5757 424.244 81.6745 424.244 79.2944C424.244 76.9142 425.969 74.9843 429.917 74.9565ZM426.979 76.856C426.476 76.8583 425.993 77.0604 425.638 77.4175C425.282 77.7745 425.083 78.2575 425.083 78.7612C425.083 79.2651 425.282 79.7489 425.638 80.106C425.993 80.463 426.476 80.6642 426.979 80.6665C427 80.6574 428.444 80.0317 429.901 80.0317C431.418 80.0318 432.95 80.6665 432.95 80.6665C433.201 80.6676 433.45 80.6191 433.682 80.5239C433.914 80.4287 434.125 80.2888 434.303 80.1118C434.481 79.9348 434.622 79.7244 434.719 79.4927C434.815 79.261 434.864 79.0121 434.864 78.7612C434.864 78.5103 434.815 78.2615 434.719 78.0298C434.622 77.7981 434.481 77.5877 434.303 77.4106C434.125 77.2337 433.914 77.0937 433.682 76.9985C433.45 76.9034 433.201 76.8548 432.95 76.856H426.979Z" fill="white"/>
<path fill-rule="evenodd" clip-rule="evenodd" d="M430.083 75.0673L431.306 66.7812C431.306 66.7812 431.779 64.4177 433.809 64.4456C435.839 64.4734 437.312 67.5598 437.368 70.0623C437.328 73.2766 435.561 72.196 434.587 70.6184C434.587 70.4238 432.196 75.2898 432.196 75.2898L430.083 75.0673Z" fill="white"/>
<path fill-rule="evenodd" clip-rule="evenodd" d="M429.751 75.0673L428.527 66.7812C428.527 66.7812 428.054 64.4177 426.025 64.4456C423.995 64.4734 422.521 67.5598 422.466 70.0623C422.506 73.2766 424.273 72.196 425.246 70.6184C425.246 70.4238 427.638 75.2898 427.638 75.2898L429.751 75.0673Z" fill="white"/>
<path d="M432.166 79.6317L431.265 78.9078V78.5945L432.166 77.8706V78.2262L431.749 78.5352L431.473 78.7427V78.7596L431.749 78.967L432.166 79.2761V79.6317Z" fill="white"/>
<path d="M432.453 79.6317L433.354 78.9078V78.5945L432.453 77.8706V78.2262L432.869 78.5352L433.145 78.7427V78.7596L432.869 78.967L432.453 79.2761V79.6317Z" fill="white"/>
<path d="M428.006 79.5185V79.3071H428.384V78.1483H428.079V77.9865C428.157 77.9708 428.226 77.9525 428.285 77.9316C428.344 77.9108 428.398 77.8855 428.447 77.856H428.643V79.3071H428.977V79.5185H428.006Z" fill="white"/>
<path d="M427.15 79.5504C426.98 79.5504 426.845 79.4756 426.746 79.3259C426.648 79.1763 426.6 78.9614 426.6 78.6813C426.6 78.4011 426.648 78.1889 426.746 78.0444C426.845 77.8983 426.98 77.8252 427.15 77.8252C427.319 77.8252 427.452 77.8983 427.55 78.0444C427.649 78.1906 427.698 78.4029 427.698 78.6813C427.698 78.9614 427.649 79.1763 427.55 79.3259C427.452 79.4756 427.319 79.5504 427.15 79.5504ZM427.15 79.3442C427.208 79.3442 427.259 79.3224 427.304 79.2789C427.35 79.2354 427.385 79.165 427.411 79.0675C427.437 78.9701 427.45 78.8413 427.45 78.6813C427.45 78.5212 427.437 78.3942 427.411 78.3002C427.385 78.2045 427.35 78.1358 427.304 78.094C427.259 78.0505 427.208 78.0288 427.15 78.0288C427.091 78.0288 427.039 78.0505 426.994 78.094C426.948 78.1358 426.913 78.2045 426.887 78.3002C426.861 78.3942 426.848 78.5212 426.848 78.6813C426.848 78.8413 426.861 78.9701 426.887 79.0675C426.913 79.165 426.948 79.2354 426.994 79.2789C427.039 79.3224 427.091 79.3442 427.15 79.3442Z" fill="white"/>
<mask id="mask0_233_331" style="mask-type:alpha" maskUnits="userSpaceOnUse" x="426" y="82" width="4" height="6">
<path d="M429.96 82.2329H426.315V87.7618H429.96V82.2329Z" fill="black"/>
</mask>
<g mask="url(#mask0_233_331)">
<path d="M428.365 85.4917C428.535 85.4918 428.702 85.5425 428.843 85.6373C428.985 85.7321 429.095 85.8667 429.16 86.0242C429.226 86.1817 429.243 86.355 429.209 86.5222C429.176 86.6894 429.094 86.8429 428.973 86.9634C428.853 87.0839 428.699 87.1659 428.532 87.1991C428.365 87.2323 428.191 87.2152 428.034 87.15C427.876 87.0847 427.742 86.9742 427.647 86.8325C427.552 86.6908 427.502 86.5241 427.502 86.3537C427.502 86.125 427.593 85.9057 427.755 85.744C427.916 85.5824 428.136 85.4916 428.365 85.4917Z" fill="white"/>
<path d="M428.824 82.9668C428.824 82.9668 427.918 83.3777 427.38 84.2903C426.842 85.2028 426.621 86.1982 427.3 86.2552C427.979 86.3122 428.426 83.9258 428.663 84.2501C428.512 84.8387 428.172 85.3559 428.142 85.6938C428.112 86.0317 429.214 86.2516 429.586 86.2552C429.957 86.2588 431.029 86.175 431.029 86.175L431.912 86.1349C431.912 86.1349 431.928 85.5031 431.591 84.9318C431.254 84.3606 431.177 84.1867 431.308 84.2438C431.439 84.3009 432.262 86.2117 432.714 86.095C433.165 85.9782 433.518 85.2326 432.031 83.6321C430.544 82.0316 430.749 82.8467 430.749 82.8467H430.147L428.824 82.9668Z" fill="white"/>
</g>
<mask id="mask1_233_331" style="mask-type:alpha" maskUnits="userSpaceOnUse" x="429" y="82" width="5" height="6">
<path d="M433.932 82.2329H429.918V87.7618H433.932V82.2329Z" fill="#B92482"/>
</mask>
<g mask="url(#mask1_233_331)">
<path d="M428.455 85.4917C428.625 85.4915 428.792 85.5418 428.934 85.6364C429.076 85.731 429.187 85.8655 429.252 86.023C429.317 86.1804 429.335 86.3538 429.302 86.5211C429.269 86.6884 429.187 86.8421 429.066 86.9628C428.946 87.0834 428.792 87.1657 428.625 87.199C428.457 87.2324 428.284 87.2154 428.126 87.1502C427.969 87.085 427.834 86.9745 427.739 86.8327C427.645 86.6909 427.594 86.5242 427.594 86.3537C427.594 86.2406 427.616 86.1286 427.659 86.024C427.703 85.9195 427.766 85.8245 427.846 85.7445C427.926 85.6644 428.021 85.6009 428.125 85.5575C428.23 85.5142 428.342 85.4918 428.455 85.4917ZM431.541 85.4917C431.712 85.4919 431.878 85.5425 432.02 85.6373C432.161 85.7321 432.272 85.8668 432.337 86.0243C432.402 86.1818 432.419 86.3551 432.386 86.5223C432.352 86.6894 432.27 86.843 432.15 86.9634C432.029 87.0839 431.876 87.166 431.708 87.1992C431.541 87.2324 431.368 87.2153 431.21 87.15C431.053 87.0847 430.918 86.9743 430.824 86.8325C430.729 86.6908 430.678 86.5242 430.678 86.3537C430.678 86.2405 430.701 86.1283 430.744 86.0237C430.788 85.9191 430.851 85.8241 430.931 85.7441C431.011 85.664 431.106 85.6005 431.211 85.5573C431.316 85.514 431.428 85.4917 431.541 85.4917ZM431.083 82.9668C431.083 82.9668 431.989 83.3777 432.526 84.2903C433.064 85.2028 433.285 86.1982 432.607 86.2552C431.928 86.3122 431.481 83.9258 431.243 84.2501C431.395 84.8387 431.735 85.3559 431.764 85.6938C431.794 86.0317 430.692 86.2516 430.321 86.2552C429.95 86.2588 428.877 86.175 428.877 86.175L427.995 86.1349C427.995 86.1349 427.978 85.5031 428.316 84.9318C428.653 84.3606 428.729 84.1867 428.598 84.2438C428.467 84.3009 427.644 86.2117 427.193 86.095C426.741 85.9782 426.388 85.2326 427.875 83.6321C429.362 82.0316 429.158 82.8467 429.158 82.8467H429.759L431.083 82.9668Z" fill="white"/>
</g>
<g clip-path="url(#clip1_233_331)">
<path d="M549.131 76.7552C549.131 80.5785 552.266 83.6652 556.149 83.6652C559.997 83.6652 563.167 80.5785 563.167 76.7552C563.167 72.967 559.997 69.8452 556.149 69.8452C552.266 69.8452 549.131 72.967 549.131 76.7552ZM579.199 67.1794C579.199 65.8816 580.303 64.7241 581.693 64.7241C583.082 64.7241 584.258 65.8816 584.258 67.1794V81.2099C584.258 82.5077 583.082 83.6652 581.693 83.6652C580.303 83.6652 579.199 82.5077 579.199 81.2099V67.1794ZM550.983 87.1027C551.268 89.5228 553.299 91.7327 556.149 91.7327C558.964 91.7327 561.065 89.5228 561.35 87.1027C561.742 83.595 558.5 84.7525 556.149 84.7525C553.798 84.7525 550.592 83.595 550.983 87.1027ZM573.606 77.7373C573.855 77.1761 574.496 76.8254 575.743 76.8254C577.703 76.7903 578.486 75.5275 577.453 73.5282C576.741 72.1602 575.636 71.108 574.14 70.4415C570.613 68.8982 566.445 70.4766 564.877 73.9491C563.31 77.3866 564.877 81.4905 568.44 83.0689C569.936 83.7003 571.433 83.8055 572.964 83.4196C575.173 82.8234 575.636 81.3852 574.318 79.9471C573.499 79.0001 573.321 78.3336 573.606 77.7373Z" fill="white"/>
</g>
<path d="M689.206 83.2662V70.583H694.596C695.951 70.583 696.935 70.6984 697.546 70.9291C698.163 71.154 698.657 71.5578 699.026 72.1403C699.395 72.7228 699.579 73.389 699.579 74.1388C699.579 75.0905 699.3 75.8778 698.74 76.5007C698.181 77.1178 697.344 77.5072 696.231 77.6687C696.785 77.9916 697.241 78.3464 697.598 78.7328C697.962 79.1192 698.449 79.8056 699.06 80.7919L700.609 83.2662H697.546L695.695 80.5064C695.037 79.5201 694.587 78.9001 694.345 78.6463C694.103 78.3867 693.846 78.2108 693.575 78.1185C693.304 78.0205 692.874 77.9715 692.286 77.9715H691.767V83.2662H689.206ZM691.767 75.947H693.662C694.89 75.947 695.657 75.8951 695.963 75.7913C696.269 75.6874 696.508 75.5086 696.681 75.2549C696.854 75.0011 696.941 74.6839 696.941 74.3032C696.941 73.8764 696.825 73.5332 696.595 73.2737C696.37 73.0083 696.05 72.8411 695.634 72.7719C695.427 72.743 694.804 72.7286 693.765 72.7286H691.767V75.947Z" fill="white"/>
<path d="M673.872 83.2662V70.583H677.705L680.006 79.2346L682.281 70.583H686.123V83.2662H683.744V73.2823L681.226 83.2662H678.76L676.251 73.2823V83.2662H673.872Z" fill="white"/>
<path d="M672.007 83.2662H669.221L668.114 80.3853H663.044L661.997 83.2662H659.28L664.22 70.583H666.928L672.007 83.2662ZM667.292 78.2483L665.544 73.5418L663.831 78.2483H667.292Z" fill="white"/>
<path d="M646.093 83.2662L643.064 70.583H645.686L647.598 79.2952L649.917 70.583H652.962L655.185 79.4422L657.132 70.583H659.71L656.63 83.2662H653.914L651.387 73.7841L648.87 83.2662H646.093Z" fill="white"/>
<path d="M638.091 75.6539H635.552H633.013C632.312 75.6539 631.743 75.0859 631.743 74.3861C631.743 73.6862 632.312 73.1182 633.013 73.1182H634.282C634.983 73.1182 635.552 72.5502 635.552 71.8504C635.552 71.1505 634.983 70.5825 634.282 70.5825H631.743H624.125H617.777C617.077 70.5825 616.508 71.1505 616.508 71.8504C616.508 72.5502 617.077 73.1182 617.777 73.1182H620.317H622.856C623.557 73.1182 624.125 73.6862 624.125 74.3861C624.125 75.0859 623.557 75.6539 622.856 75.6539H620.317H619.047C618.346 75.6539 617.777 76.2219 617.777 76.9218C617.777 77.6216 618.346 78.1896 619.047 78.1896H621.586H622.856H624.125C624.826 78.1896 625.395 78.7576 625.395 79.4575C625.395 80.1573 624.826 80.7253 624.125 80.7253H621.586C620.885 80.7253 620.317 81.2933 620.317 81.9932C620.317 82.693 620.885 83.261 621.586 83.261H631.743C632.444 83.261 633.013 82.693 633.013 81.9932C633.013 81.2933 632.444 80.7253 631.743 80.7253H630.473C629.773 80.7253 629.204 80.1573 629.204 79.4575C629.204 78.7576 629.773 78.1896 630.473 78.1896H633.013H638.091C638.792 78.1896 639.361 77.6216 639.361 76.9218C639.361 76.2219 638.792 75.6539 638.091 75.6539Z" fill="white"/>
<path d="M635.552 83.2608H638.091C638.792 83.2608 639.361 82.6928 639.361 81.9929C639.361 81.2931 638.792 80.7251 638.091 80.7251H635.552C634.851 80.7251 634.282 81.2931 634.282 81.9929C634.282 82.6928 634.851 83.2608 635.552 83.2608Z" fill="white"/>
<path d="M617.777 83.2608C618.479 83.2608 619.047 82.6932 619.047 81.9929C619.047 81.2927 618.479 80.7251 617.777 80.7251C617.076 80.7251 616.508 81.2927 616.508 81.9929C616.508 82.6932 617.076 83.2608 617.777 83.2608Z" fill="white"/>
<path d="M638.092 73.1182C638.793 73.1182 639.361 72.5506 639.361 71.8504C639.361 71.1502 638.793 70.5825 638.092 70.5825C637.391 70.5825 636.822 71.1502 636.822 71.8504C636.822 72.5506 637.391 73.1182 638.092 73.1182Z" fill="white"/>
<path d="M619.075 85.5751L618.851 86.1034H618.438L619.474 83.7588H619.881L620.908 86.1034H620.485L620.261 85.5751H619.075ZM619.666 84.181L619.224 85.2236H620.11L619.666 84.181Z" fill="white"/>
<path d="M622.78 85.7449V86.1034H621.367V83.7588H621.764V85.7449H622.78Z" fill="white"/>
<path d="M624.682 85.7449V86.1034H623.27V83.7588H623.666V85.7449H624.682Z" fill="white"/>
<path d="M625.171 86.1034V83.7588H625.568V86.1034H625.171Z" fill="white"/>
<path d="M626.656 85.5751L626.432 86.1034H626.019L627.055 83.7588H627.462L628.489 86.1034H628.066L627.842 85.5751H626.656ZM627.247 84.181L626.805 85.2236H627.691L627.247 84.181Z" fill="white"/>
<path d="M630.599 86.1034L629.347 84.4216V86.1034H628.95V83.7588H629.34L630.597 85.443V83.7588H630.986V86.1034H630.599Z" fill="white"/>
<path d="M633.71 84.1108L633.479 84.3986C633.309 84.2146 633.063 84.1014 632.824 84.1014C632.354 84.1014 631.986 84.4623 631.986 84.9246C631.986 85.3869 632.354 85.7525 632.824 85.7525C633.058 85.7525 633.302 85.6464 633.479 85.4742L633.713 85.736C633.474 85.9695 633.136 86.1205 632.803 86.1205C632.116 86.1205 631.582 85.6016 631.582 84.927C631.582 84.2594 632.123 83.7476 632.817 83.7476C633.15 83.7499 633.481 83.8867 633.71 84.1108Z" fill="white"/>
<path d="M634.653 84.115V84.7471H635.801V85.1033H634.653V85.7496H635.973V86.1034H634.256V83.7588H635.933V84.115H634.653Z" fill="white"/>
<path d="M619.205 67.7499C619.76 67.7499 620.113 67.9762 620.113 68.3295C620.113 68.5628 619.959 68.7568 619.711 68.8238C620.002 68.8838 620.187 69.1124 620.187 69.4034C620.187 69.796 619.822 70.0455 619.253 70.0455H618.039V67.7476H619.205V67.7499ZM618.74 68.6529H619.165C619.304 68.6529 619.392 68.5743 619.392 68.4519C619.392 68.3342 619.304 68.2626 619.165 68.2626H618.74V68.6529ZM618.74 69.542H619.165C619.346 69.542 619.457 69.4565 619.457 69.3226C619.457 69.1979 619.346 69.1194 619.165 69.1194H618.74V69.542Z" fill="white"/>
<path d="M621.909 70.0502H621.205V69.3343L620.336 67.75H621.039L621.557 68.6876L622.061 67.75H622.762L621.909 69.3204V70.0502Z" fill="white"/>
<path d="M624.433 68.295V70.0502H623.725V68.295H623.038V67.75H625.122V68.295H624.433Z" fill="white"/>
<path d="M626.201 68.2772V68.6374H627.321V69.1617H626.201V69.5266H627.469V70.0508H625.496V67.7529H627.434V68.2772H626.201Z" fill="white"/>
<path d="M630.106 68.1386L629.702 68.6051C629.554 68.4203 629.334 68.3002 629.137 68.3002C628.816 68.3002 628.573 68.5519 628.573 68.8914C628.573 69.2286 628.816 69.485 629.137 69.485C629.32 69.485 629.54 69.381 629.702 69.2194L630.106 69.6397C629.85 69.9076 629.461 70.0831 629.103 70.0831C628.383 70.0831 627.852 69.5773 627.852 68.8984C627.852 68.2286 628.393 67.7344 629.126 67.7344C629.484 67.7321 629.866 67.8891 630.106 68.1386Z" fill="white"/>
<path d="M632.913 68.8981C632.913 69.5747 632.365 70.0782 631.62 70.0782C630.875 70.0782 630.327 69.577 630.327 68.8981C630.327 68.2237 630.875 67.7295 631.62 67.7295C632.365 67.7295 632.913 68.226 632.913 68.8981ZM631.049 68.9027C631.049 69.2514 631.319 69.5101 631.631 69.5101C631.944 69.5101 632.193 69.2514 632.193 68.9027C632.193 68.554 631.944 68.3022 631.631 68.3022C631.317 68.3022 631.049 68.554 631.049 68.9027Z" fill="white"/>
<path d="M634.435 67.75C635.203 67.75 635.709 68.205 635.709 68.8978C635.709 69.5906 635.191 70.0479 634.41 70.0479H633.395V67.75H634.435ZM634.1 69.5144H634.456C634.777 69.5144 634.995 69.2719 634.995 68.9047C634.995 68.5352 634.761 68.2881 634.424 68.2881H634.102V69.5144H634.1Z" fill="white"/>
<path d="M636.896 68.2772V68.6374H638.015V69.1617H636.896V69.5266H638.163V70.0508H636.19V67.7529H638.128V68.2772H636.896Z" fill="white"/>
<defs>
<clipPath id="clip0_233_331">
<rect width="80.7868" height="45.3194" fill="white" transform="translate(145 52.9512)"/>
</clipPath>
<clipPath id="clip1_233_331">
<rect width="35.4674" height="45.3194" fill="white" transform="translate(549.041 52.9512)"/>
</clipPath>
</defs>
</svg>
